<svg width="71" height="71" viewBox="0 0 71 71" fill="none" xmlns="http://www.w3.org/2000/svg">
<path d="M71 35.5C71 55.1061 55.1061 71 35.5 71C15.8939 71 0 55.1061 0 35.5C0 15.8939 15.8939 0 35.5 0C55.1061 0 71 15.8939 71 35.5Z" fill="#C4DBF6"/>
<path d="M16.6069 24.1818H18.8761L23.6381 34.5369H23.8512L32.0224 24.1818H34.3342L24.4052 36.5504L22.8391 46H20.8576L22.413 36.5504L16.6069 24.1818ZM38.18 46.3409C36.7454 46.3409 35.538 45.9787 34.5579 45.2543C33.5778 44.5227 32.8853 43.5107 32.4805 42.218C32.0756 40.9254 32.0082 39.4339 32.2781 37.7436C32.5479 36.0959 33.0842 34.647 33.8867 33.397C34.6964 32.1399 35.6907 31.1634 36.8697 30.4673C38.0487 29.7642 39.3306 29.4126 40.7156 29.4126C42.1573 29.4126 43.3647 29.7784 44.3377 30.5099C45.3178 31.2415 46.0103 32.2536 46.4151 33.5462C46.8271 34.8388 46.8981 36.3338 46.6282 38.0312C46.3583 39.6719 45.8185 41.1172 45.0089 42.3672C44.1992 43.6101 43.2049 44.5831 42.0259 45.2862C40.854 45.9893 39.5721 46.3409 38.18 46.3409ZM38.2013 44.6044C39.3661 44.6044 40.4031 44.2955 41.3121 43.6776C42.2283 43.0526 42.9847 42.2216 43.5813 41.1847C44.1779 40.1406 44.5792 38.9936 44.7852 37.7436C44.9769 36.5504 44.9556 35.4531 44.7212 34.4517C44.4869 33.4503 44.0359 32.6477 43.3683 32.044C42.7006 31.4403 41.8129 31.1385 40.7049 31.1385C39.5472 31.1385 38.5103 31.4545 37.5941 32.0866C36.6779 32.7116 35.9215 33.5497 35.3249 34.6009C34.7283 35.6449 34.3306 36.7884 34.1317 38.0312C33.9329 39.2315 33.9471 40.3288 34.1744 41.3232C34.4087 42.3175 34.8597 43.1129 35.5273 43.7095C36.2021 44.3061 37.0934 44.6044 38.2013 44.6044ZM55.7555 24.1818L53.0282 39.7464H51.1532L53.6035 24.1818H55.7555ZM51.2704 46.1598C50.8372 46.1598 50.4785 46.0107 50.1944 45.7124C49.9103 45.4141 49.7683 45.0518 49.7683 44.6257C49.7683 44.1996 49.9245 43.8409 50.237 43.5497C50.5495 43.2585 50.9118 43.1129 51.3237 43.1129C51.7498 43.1129 52.112 43.2621 52.4103 43.5604C52.7086 43.8587 52.8507 44.2138 52.8365 44.6257C52.8223 44.9098 52.7441 45.169 52.6021 45.4034C52.46 45.6307 52.2718 45.8153 52.0375 45.9574C51.8031 46.0923 51.5474 46.1598 51.2704 46.1598Z" fill="#B23850"/>
</svg>
