<svg width="61" height="61" viewBox="0 0 61 61" fill="none" xmlns="http://www.w3.org/2000/svg">
<path d="M61 30.5C61 47.3447 47.3447 61 30.5 61C13.6553 61 0 47.3447 0 30.5C0 13.6553 13.6553 0 30.5 0C47.3447 0 61 13.6553 61 30.5Z" fill="#C4DBF6"/>
<path d="M11.6069 19.1818H13.8761L18.6381 29.5369H18.8512L27.0224 19.1818H29.3342L19.4052 31.5504L17.8391 41H15.8576L17.413 31.5504L11.6069 19.1818ZM33.18 41.3409C31.7454 41.3409 30.538 40.9787 29.5579 40.2543C28.5778 39.5227 27.8853 38.5107 27.4805 37.218C27.0756 35.9254 27.0082 34.4339 27.2781 32.7436C27.5479 31.0959 28.0842 29.647 28.8867 28.397C29.6964 27.1399 30.6907 26.1634 31.8697 25.4673C33.0487 24.7642 34.3306 24.4126 35.7156 24.4126C37.1573 24.4126 38.3647 24.7784 39.3377 25.5099C40.3178 26.2415 41.0103 27.2536 41.4151 28.5462C41.8271 29.8388 41.8981 31.3338 41.6282 33.0312C41.3583 34.6719 40.8185 36.1172 40.0089 37.3672C39.1992 38.6101 38.2049 39.5831 37.0259 40.2862C35.854 40.9893 34.5721 41.3409 33.18 41.3409ZM33.2013 39.6044C34.3661 39.6044 35.4031 39.2955 36.3121 38.6776C37.2283 38.0526 37.9847 37.2216 38.5813 36.1847C39.1779 35.1406 39.5792 33.9936 39.7852 32.7436C39.9769 31.5504 39.9556 30.4531 39.7212 29.4517C39.4869 28.4503 39.0359 27.6477 38.3683 27.044C37.7006 26.4403 36.8129 26.1385 35.7049 26.1385C34.5472 26.1385 33.5103 26.4545 32.5941 27.0866C31.6779 27.7116 30.9215 28.5497 30.3249 29.6009C29.7283 30.6449 29.3306 31.7884 29.1317 33.0312C28.9329 34.2315 28.9471 35.3288 29.1744 36.3232C29.4087 37.3175 29.8597 38.1129 30.5273 38.7095C31.2021 39.3061 32.0934 39.6044 33.2013 39.6044ZM50.7555 19.1818L48.0282 34.7464H46.1532L48.6035 19.1818H50.7555ZM46.2704 41.1598C45.8372 41.1598 45.4785 41.0107 45.1944 40.7124C44.9103 40.4141 44.7683 40.0518 44.7683 39.6257C44.7683 39.1996 44.9245 38.8409 45.237 38.5497C45.5495 38.2585 45.9118 38.1129 46.3237 38.1129C46.7498 38.1129 47.112 38.2621 47.4103 38.5604C47.7086 38.8587 47.8507 39.2138 47.8365 39.6257C47.8223 39.9098 47.7441 40.169 47.6021 40.4034C47.46 40.6307 47.2718 40.8153 47.0375 40.9574C46.8031 41.0923 46.5474 41.1598 46.2704 41.1598Z" fill="#B23850"/>
</svg>
